<?xml version="1.0" standalone="no"?>
<!DOCTYPE svg PUBLIC "-//W3C//DTD SVG 20010904//EN"
 "http://www.w3.org/TR/2001/REC-SVG-20010904/DTD/svg10.dtd">
<svg version="1.0" xmlns="http://www.w3.org/2000/svg"
 width="833.000000pt" height="833.000000pt" viewBox="0 0 833.000000 833.000000"
 preserveAspectRatio="xMidYMid meet">
<metadata>
Created by potrace 1.11, written by Peter Selinger 2001-2013
</metadata>
<g transform="translate(0.000000,833.000000) scale(0.100000,-0.100000)"
fill="#000000" stroke="none">
<path d="M0 4165 l0 -4165 4165 0 4165 0 0 4165 0 4165 -4165 0 -4165 0 0
-4165z m5448 2471 c33 -30 37 -40 37 -83 0 -47 -15 -71 -504 -828 -292 -451
-510 -798 -518 -825 -32 -101 9 -223 101 -308 49 -44 130 -82 1007 -473 524
-233 965 -434 980 -447 35 -29 53 -80 40 -115 -12 -31 -39 -47 -80 -47 -17 0
-215 38 -442 85 -226 47 -416 82 -422 78 -7 -4 -598 -456 -1314 -1005 -716
-549 -1314 -1003 -1330 -1009 -65 -25 -150 32 -160 107 -5 37 16 71 503 824
279 432 514 803 522 825 21 58 11 158 -21 221 -14 28 -50 73 -79 100 -50 45
-127 81 -1009 472 -1040 462 -1019 451 -1019 530 0 43 19 66 62 77 17 4 175
-24 449 -81 365 -75 425 -85 443 -74 12 7 568 432 1236 945 668 512 1255 961
1303 998 78 60 92 67 132 67 38 0 52 -6 83 -34z"/>
</g>
</svg>
